<svg width="40" height="24" viewBox="0 0 40 24" fill="none" xmlns="http://www.w3.org/2000/svg">
<rect width="40" height="24" rx="4" fill="white"/>
<path d="M24.3275 4.11731H15.6758V19.663H24.3275V4.11731Z" fill="#FF5F00"/>
<path d="M16.2246 11.89C16.2246 8.86875 17.6253 5.98483 19.9874 4.11716C15.7027 0.738857 9.49546 1.48044 6.11716 5.79257C2.73886 10.0772 3.48044 16.2845 7.79257 19.6628C11.3906 22.4918 16.4168 22.4918 20.0149 19.6628C17.6253 17.7952 16.2246 14.9112 16.2246 11.89Z" fill="#EB001B"/>
<path d="M36.0007 11.8901C36.0007 17.3558 31.5787 21.7778 26.113 21.7778C23.8883 21.7778 21.746 21.0362 20.0156 19.6629C24.3003 16.2846 25.0419 10.0774 21.6636 5.76523C21.1692 5.16098 20.6199 4.5842 20.0156 4.11728C24.3003 0.738979 30.535 1.48056 33.8859 5.7927C35.2592 7.52304 36.0007 9.66538 36.0007 11.8901Z" fill="#F79E1B"/>
<path d="M35.0653 18.0155V17.6859H35.2026V17.631H34.873V17.6859H35.0104V18.0155H35.0653ZM35.697 18.0155V17.631H35.5872L35.4773 17.9056L35.3674 17.631H35.2576V18.0155H35.34V17.7134L35.4498 17.9606H35.5322L35.6421 17.7134V18.0155H35.697Z" fill="#F79E1B"/>
</svg>
